TITLE ""
FILE "DISC2Track12.mp3" MP3
  TRACK 01 AUDIO
    TITLE "DISC2Track12_01"
    INDEX 01 00:00:00
  TRACK 02 AUDIO
    TITLE "DISC2Track12_02"
    INDEX 01 00:01:45
  TRACK 03 AUDIO
    TITLE "DISC2Track12_03"
    INDEX 01 00:01:61
  TRACK 04 AUDIO
    TITLE "DISC2Track12_04"
    INDEX 01 00:04:30
  TRACK 05 AUDIO
    TITLE "DISC2Track12_05"
    INDEX 01 00:07:08
  TRACK 06 AUDIO
    TITLE "DISC2Track12_06"
    INDEX 01 00:09:37
  TRACK 07 AUDIO
    TITLE "DISC2Track12_07"
    INDEX 01 00:09:50
  TRACK 08 AUDIO
    TITLE "DISC2Track12_08"
    INDEX 01 00:12:29
  TRACK 09 AUDIO
    TITLE "DISC2Track12_09"
    INDEX 01 00:15:31
  TRACK 10 AUDIO
    TITLE "DISC2Track12_10"
    INDEX 01 00:18:12
  TRACK 11 AUDIO
    TITLE "DISC2Track12_11"
    INDEX 01 00:18:28
  TRACK 12 AUDIO
    TITLE "DISC2Track12_12"
    INDEX 01 00:21:65
  TRACK 13 AUDIO
    TITLE "DISC2Track12_13"
    INDEX 01 00:25:47
  TRACK 14 AUDIO
    TITLE "DISC2Track12_14"
    INDEX 01 00:28:69
  TRACK 15 AUDIO
    TITLE "DISC2Track12_15"
    INDEX 01 00:29:10
  TRACK 16 AUDIO
    TITLE "DISC2Track12_16"
    INDEX 01 00:33:08
  TRACK 17 AUDIO
    TITLE "DISC2Track12_17"
    INDEX 01 00:36:30
  TRACK 18 AUDIO
    TITLE "DISC2Track12_18"
    INDEX 01 00:39:32
  TRACK 19 AUDIO
    TITLE "DISC2Track12_19"
    INDEX 01 00:39:44
  TRACK 20 AUDIO
    TITLE "DISC2Track12_20"
    INDEX 01 00:42:36
  TRACK 21 AUDIO
    TITLE "DISC2Track12_21"
    INDEX 01 00:45:48
  TRACK 22 AUDIO
    TITLE "DISC2Track12_22"
    INDEX 01 00:48:21
  TRACK 23 AUDIO
    TITLE "DISC2Track12_23"
    INDEX 01 00:48:39
  TRACK 24 AUDIO
    TITLE "DISC2Track12_24"
    INDEX 01 00:50:73
  TRACK 25 AUDIO
    TITLE "DISC2Track12_25"
    INDEX 01 00:53:59
  TRACK 26 AUDIO
    TITLE "DISC2Track12_26"
    INDEX 01 00:56:13
  TRACK 27 AUDIO
    TITLE "DISC2Track12_27"
    INDEX 01 00:56:28
  TRACK 28 AUDIO
    TITLE "DISC2Track12_28"
    INDEX 01 00:59:70
  TRACK 29 AUDIO
    TITLE "DISC2Track12_29"
    INDEX 01 01:03:40
  TRACK 30 AUDIO
    TITLE "DISC2Track12_30"
    INDEX 01 01:06:54
  TRACK 31 AUDIO
    TITLE "DISC2Track12_31"
    INDEX 01 01:06:70
  TRACK 32 AUDIO
    TITLE "DISC2Track12_32"
    INDEX 01 01:10:72
  TRACK 33 AUDIO
    TITLE "DISC2Track12_33"
    INDEX 01 01:14:54
  TRACK 34 AUDIO
    TITLE "DISC2Track12_34"
    INDEX 01 01:18:03
  TRACK 35 AUDIO
    TITLE "DISC2Track12_35"
    INDEX 01 01:18:20
  TRACK 36 AUDIO
    TITLE "DISC2Track12_36"
    INDEX 01 01:20:72
  TRACK 37 AUDIO
    TITLE "DISC2Track12_37"
    INDEX 01 01:24:05
  TRACK 38 AUDIO
    TITLE "DISC2Track12_38"
    INDEX 01 01:26:63
  TRACK 39 AUDIO
    TITLE "DISC2Track12_39"
    INDEX 01 01:27:04
  TRACK 40 AUDIO
    TITLE "DISC2Track12_40"
    INDEX 01 01:31:05
  TRACK 41 AUDIO
    TITLE "DISC2Track12_41"
    INDEX 01 01:34:58
  TRACK 42 AUDIO
    TITLE "DISC2Track12_42"
    INDEX 01 01:38:03
